<svg xmlns="http://www.w3.org/2000/svg" viewBox="0 0 120 120" role="img" aria-labelledby="title">
  <title>Evergreen Organic Market logo</title>
  <rect width="120" height="120" rx="18" fill="#e8f5e9"/>
  <circle cx="60" cy="56" r="42" fill="#2ecc71" opacity="0.75"/>
  <path d="M60 24c12 8 20 20 20 32 0 18-14 32-20 40-6-8-20-22-20-40 0-12 8-24 20-32z" fill="#ffffff" opacity="0.85"/>
  <path d="M60 44c6 4 10 10 10 16 0 8-6 16-10 20-4-4-10-12-10-20 0-6 4-12 10-16z" fill="#27ae60"/>
  <text x="60" y="100" text-anchor="middle" font-family="Poppins, Arial, sans-serif" font-size="18" font-weight="700" fill="#1b5e20">EOM</text>
</svg>

